<mxfile host="Electron" agent="Mozilla/5.0 (Windows NT 10.0; Win64; x64) AppleWebKit/537.36 (KHTML, like Gecko) draw.io/26.0.15 Chrome/132.0.6834.196 Electron/34.2.0 Safari/537.36" version="26.0.15">
  <diagram name="Страница — 1" id="UI_bWxTD1ghXTzAJOjOJ">
    <mxGraphModel dx="2736" dy="2313" grid="1" gridSize="10" guides="1" tooltips="1" connect="1" arrows="1" fold="1" page="1" pageScale="1" pageWidth="827" pageHeight="1169" math="0" shadow="0">
      <root>
        <mxCell id="0" />
        <mxCell id="1" parent="0" />
        <mxCell id="FwPt4kaaaoxJ7pNveMdv-1" value="&lt;font style=&quot;font-size: 15px;&quot;&gt;Menu&lt;/font&gt;" style="rounded=0;whiteSpace=wrap;html=1;" parent="1" vertex="1">
          <mxGeometry x="332" y="40" width="90" height="40" as="geometry" />
        </mxCell>
        <mxCell id="FwPt4kaaaoxJ7pNveMdv-2" value="&lt;font style=&quot;font-size: 15px;&quot;&gt;Game&lt;/font&gt;" style="rounded=0;whiteSpace=wrap;html=1;" parent="1" vertex="1">
          <mxGeometry x="-100" y="120" width="90" height="40" as="geometry" />
        </mxCell>
        <mxCell id="FwPt4kaaaoxJ7pNveMdv-17" value="" style="endArrow=classic;html=1;rounded=0;exitX=0.5;exitY=1;exitDx=0;exitDy=0;entryX=0.5;entryY=0;entryDx=0;entryDy=0;jumpSize=6;strokeWidth=3;" parent="1" source="FwPt4kaaaoxJ7pNveMdv-1" target="FwPt4kaaaoxJ7pNveMdv-2" edge="1">
          <mxGeometry width="50" height="50" relative="1" as="geometry">
            <mxPoint x="330" y="250" as="sourcePoint" />
            <mxPoint x="380" y="200" as="targetPoint" />
          </mxGeometry>
        </mxCell>
        <mxCell id="-v-FeaUxsi9AabH1ScJe-1" value="&lt;font style=&quot;font-size: 15px;&quot;&gt;MiniGame&lt;/font&gt;" style="rounded=0;whiteSpace=wrap;html=1;" parent="1" vertex="1">
          <mxGeometry x="780" y="120" width="90" height="40" as="geometry" />
        </mxCell>
        <mxCell id="-v-FeaUxsi9AabH1ScJe-2" value="" style="endArrow=classic;html=1;rounded=0;exitX=0.5;exitY=1;exitDx=0;exitDy=0;entryX=0.5;entryY=0;entryDx=0;entryDy=0;jumpSize=6;strokeWidth=3;" parent="1" source="FwPt4kaaaoxJ7pNveMdv-1" target="-v-FeaUxsi9AabH1ScJe-1" edge="1">
          <mxGeometry width="50" height="50" relative="1" as="geometry">
            <mxPoint x="395" y="90" as="sourcePoint" />
            <mxPoint x="235" y="130" as="targetPoint" />
          </mxGeometry>
        </mxCell>
        <mxCell id="-v-FeaUxsi9AabH1ScJe-17" value="&lt;font style=&quot;font-size: 15px;&quot;&gt;Picture&lt;/font&gt;" style="rounded=0;whiteSpace=wrap;html=1;" parent="1" vertex="1">
          <mxGeometry x="170" y="350" width="90" height="40" as="geometry" />
        </mxCell>
        <mxCell id="-v-FeaUxsi9AabH1ScJe-18" value="&lt;font style=&quot;font-size: 15px;&quot;&gt;Energy&lt;/font&gt;" style="rounded=0;whiteSpace=wrap;html=1;" parent="1" vertex="1">
          <mxGeometry x="250" y="240" width="90" height="40" as="geometry" />
        </mxCell>
        <mxCell id="-v-FeaUxsi9AabH1ScJe-20" value="" style="endArrow=classic;html=1;rounded=0;entryX=0.5;entryY=0;entryDx=0;entryDy=0;jumpSize=6;strokeWidth=3;exitX=0.5;exitY=1;exitDx=0;exitDy=0;" parent="1" source="FwPt4kaaaoxJ7pNveMdv-2" target="3gAnRvBLmUatwOGIA2fg-6" edge="1">
          <mxGeometry width="50" height="50" relative="1" as="geometry">
            <mxPoint x="332" y="220" as="sourcePoint" />
            <mxPoint x="-414.2222222222222" y="330" as="targetPoint" />
          </mxGeometry>
        </mxCell>
        <mxCell id="-v-FeaUxsi9AabH1ScJe-21" value="" style="endArrow=classic;html=1;rounded=0;entryX=0.5;entryY=0;entryDx=0;entryDy=0;jumpSize=6;strokeWidth=3;exitX=0.5;exitY=1;exitDx=0;exitDy=0;" parent="1" source="FwPt4kaaaoxJ7pNveMdv-2" target="-v-FeaUxsi9AabH1ScJe-17" edge="1">
          <mxGeometry width="50" height="50" relative="1" as="geometry">
            <mxPoint x="440" y="250" as="sourcePoint" />
            <mxPoint x="300" y="140" as="targetPoint" />
          </mxGeometry>
        </mxCell>
        <mxCell id="-v-FeaUxsi9AabH1ScJe-22" value="" style="endArrow=classic;html=1;rounded=0;entryX=0.5;entryY=0;entryDx=0;entryDy=0;jumpSize=6;strokeWidth=3;exitX=0.5;exitY=1;exitDx=0;exitDy=0;" parent="1" source="FwPt4kaaaoxJ7pNveMdv-2" target="-v-FeaUxsi9AabH1ScJe-18" edge="1">
          <mxGeometry width="50" height="50" relative="1" as="geometry">
            <mxPoint x="280" y="250" as="sourcePoint" />
            <mxPoint x="140" y="140" as="targetPoint" />
          </mxGeometry>
        </mxCell>
        <mxCell id="-v-FeaUxsi9AabH1ScJe-44" value="&lt;font style=&quot;font-size: 15px;&quot;&gt;MiniBattleSystem&lt;/font&gt;" style="rounded=0;whiteSpace=wrap;html=1;" parent="1" vertex="1">
          <mxGeometry x="850" y="280" width="130" height="40" as="geometry" />
        </mxCell>
        <mxCell id="-v-FeaUxsi9AabH1ScJe-51" value="" style="endArrow=classic;html=1;rounded=0;entryX=0.5;entryY=0;entryDx=0;entryDy=0;jumpSize=6;strokeWidth=3;exitX=0.5;exitY=1;exitDx=0;exitDy=0;" parent="1" source="-v-FeaUxsi9AabH1ScJe-1" target="3gAnRvBLmUatwOGIA2fg-53" edge="1">
          <mxGeometry width="50" height="50" relative="1" as="geometry">
            <mxPoint x="820" y="120" as="sourcePoint" />
            <mxPoint x="1133.4999999999995" y="210" as="targetPoint" />
          </mxGeometry>
        </mxCell>
        <mxCell id="-v-FeaUxsi9AabH1ScJe-52" value="" style="endArrow=classic;html=1;rounded=0;entryX=0.5;entryY=0;entryDx=0;entryDy=0;jumpSize=6;strokeWidth=3;exitX=0.5;exitY=1;exitDx=0;exitDy=0;" parent="1" source="-v-FeaUxsi9AabH1ScJe-1" target="-v-FeaUxsi9AabH1ScJe-44" edge="1">
          <mxGeometry width="50" height="50" relative="1" as="geometry">
            <mxPoint x="830" y="130" as="sourcePoint" />
            <mxPoint x="690" y="20" as="targetPoint" />
          </mxGeometry>
        </mxCell>
        <mxCell id="3gAnRvBLmUatwOGIA2fg-1" value="&lt;font style=&quot;font-size: 15px;&quot;&gt;by menu() function&lt;/font&gt;" style="text;html=1;align=center;verticalAlign=middle;whiteSpace=wrap;rounded=0;" parent="1" vertex="1">
          <mxGeometry x="110" y="30" width="90" height="60" as="geometry" />
        </mxCell>
        <mxCell id="3gAnRvBLmUatwOGIA2fg-2" value="&lt;font style=&quot;font-size: 15px;&quot;&gt;by menu() function&lt;/font&gt;" style="text;html=1;align=center;verticalAlign=middle;whiteSpace=wrap;rounded=0;" parent="1" vertex="1">
          <mxGeometry x="570" y="40" width="90" height="60" as="geometry" />
        </mxCell>
        <mxCell id="3gAnRvBLmUatwOGIA2fg-4" value="&lt;font style=&quot;font-size: 15px;&quot;&gt;as a field, friend class&lt;/font&gt;" style="text;html=1;align=center;verticalAlign=middle;whiteSpace=wrap;rounded=0;rotation=15;" parent="1" vertex="1">
          <mxGeometry x="120" y="150" width="90" height="60" as="geometry" />
        </mxCell>
        <mxCell id="3gAnRvBLmUatwOGIA2fg-5" value="&lt;font style=&quot;font-size: 15px;&quot;&gt;as a field, friend class&lt;/font&gt;" style="text;html=1;align=center;verticalAlign=middle;whiteSpace=wrap;rounded=0;rotation=30;" parent="1" vertex="1">
          <mxGeometry x="100" y="240" width="90" height="60" as="geometry" />
        </mxCell>
        <mxCell id="3gAnRvBLmUatwOGIA2fg-6" value="&lt;font style=&quot;font-size: 15px;&quot;&gt;Player&lt;/font&gt;" style="rounded=0;whiteSpace=wrap;html=1;" parent="1" vertex="1">
          <mxGeometry x="10" y="360" width="90" height="40" as="geometry" />
        </mxCell>
        <mxCell id="3gAnRvBLmUatwOGIA2fg-7" value="&lt;font style=&quot;font-size: 15px;&quot;&gt;Phone&lt;/font&gt;" style="rounded=0;whiteSpace=wrap;html=1;" parent="1" vertex="1">
          <mxGeometry x="-540" y="230" width="90" height="40" as="geometry" />
        </mxCell>
        <mxCell id="3gAnRvBLmUatwOGIA2fg-8" value="&lt;font style=&quot;font-size: 15px;&quot;&gt;Door&lt;/font&gt;" style="rounded=0;whiteSpace=wrap;html=1;" parent="1" vertex="1">
          <mxGeometry x="-400" y="350" width="90" height="40" as="geometry" />
        </mxCell>
        <mxCell id="3gAnRvBLmUatwOGIA2fg-9" value="&lt;font style=&quot;font-size: 15px;&quot;&gt;Cam&lt;/font&gt;" style="rounded=0;whiteSpace=wrap;html=1;" parent="1" vertex="1">
          <mxGeometry x="-190" y="370" width="90" height="40" as="geometry" />
        </mxCell>
        <mxCell id="3gAnRvBLmUatwOGIA2fg-10" value="&lt;font style=&quot;font-size: 15px;&quot;&gt;as a field, friend class&lt;/font&gt;" style="text;html=1;align=center;verticalAlign=middle;whiteSpace=wrap;rounded=0;rotation=0;" parent="1" vertex="1">
          <mxGeometry x="-70" y="260" width="90" height="60" as="geometry" />
        </mxCell>
        <mxCell id="3gAnRvBLmUatwOGIA2fg-13" value="" style="endArrow=classic;html=1;rounded=0;entryX=0.5;entryY=0;entryDx=0;entryDy=0;jumpSize=6;strokeWidth=3;" parent="1" target="3gAnRvBLmUatwOGIA2fg-7" edge="1">
          <mxGeometry width="50" height="50" relative="1" as="geometry">
            <mxPoint x="-50" y="160" as="sourcePoint" />
            <mxPoint x="-460" y="540" as="targetPoint" />
          </mxGeometry>
        </mxCell>
        <mxCell id="3gAnRvBLmUatwOGIA2fg-14" value="" style="endArrow=classic;html=1;rounded=0;entryX=0.5;entryY=0;entryDx=0;entryDy=0;jumpSize=6;strokeWidth=3;exitX=0.5;exitY=1;exitDx=0;exitDy=0;" parent="1" source="FwPt4kaaaoxJ7pNveMdv-2" target="3gAnRvBLmUatwOGIA2fg-8" edge="1">
          <mxGeometry width="50" height="50" relative="1" as="geometry">
            <mxPoint x="-35" y="180" as="sourcePoint" />
            <mxPoint x="75" y="380" as="targetPoint" />
          </mxGeometry>
        </mxCell>
        <mxCell id="3gAnRvBLmUatwOGIA2fg-15" value="" style="endArrow=classic;html=1;rounded=0;entryX=0.5;entryY=0;entryDx=0;entryDy=0;jumpSize=6;strokeWidth=3;" parent="1" target="3gAnRvBLmUatwOGIA2fg-9" edge="1">
          <mxGeometry width="50" height="50" relative="1" as="geometry">
            <mxPoint x="-50" y="160" as="sourcePoint" />
            <mxPoint x="85" y="390" as="targetPoint" />
          </mxGeometry>
        </mxCell>
        <mxCell id="3gAnRvBLmUatwOGIA2fg-16" value="&lt;font style=&quot;font-size: 15px;&quot;&gt;as a field, friend class&lt;/font&gt;" style="text;html=1;align=center;verticalAlign=middle;whiteSpace=wrap;rounded=0;rotation=-45;" parent="1" vertex="1">
          <mxGeometry x="-200" y="260" width="90" height="60" as="geometry" />
        </mxCell>
        <mxCell id="3gAnRvBLmUatwOGIA2fg-17" value="&lt;font style=&quot;font-size: 15px;&quot;&gt;as a field, friend class&lt;/font&gt;" style="text;html=1;align=center;verticalAlign=middle;whiteSpace=wrap;rounded=0;rotation=-30;" parent="1" vertex="1">
          <mxGeometry x="-320" y="220" width="90" height="60" as="geometry" />
        </mxCell>
        <mxCell id="3gAnRvBLmUatwOGIA2fg-18" value="&lt;font style=&quot;font-size: 15px;&quot;&gt;as a field, friend class&lt;/font&gt;" style="text;html=1;align=center;verticalAlign=middle;whiteSpace=wrap;rounded=0;rotation=0;" parent="1" vertex="1">
          <mxGeometry x="-390" y="150" width="90" height="60" as="geometry" />
        </mxCell>
        <mxCell id="3gAnRvBLmUatwOGIA2fg-19" value="&lt;font style=&quot;font-size: 15px;&quot;&gt;Random&lt;/font&gt;" style="rounded=0;whiteSpace=wrap;html=1;" parent="1" vertex="1">
          <mxGeometry x="-560" y="80" width="90" height="40" as="geometry" />
        </mxCell>
        <mxCell id="3gAnRvBLmUatwOGIA2fg-20" value="" style="endArrow=classic;html=1;rounded=0;entryX=1;entryY=0.5;entryDx=0;entryDy=0;jumpSize=6;strokeWidth=3;exitX=0;exitY=0.5;exitDx=0;exitDy=0;" parent="1" source="FwPt4kaaaoxJ7pNveMdv-2" target="3gAnRvBLmUatwOGIA2fg-19" edge="1">
          <mxGeometry width="50" height="50" relative="1" as="geometry">
            <mxPoint x="-40" y="170" as="sourcePoint" />
            <mxPoint x="-485" y="240" as="targetPoint" />
          </mxGeometry>
        </mxCell>
        <mxCell id="3gAnRvBLmUatwOGIA2fg-21" value="&lt;font style=&quot;font-size: 15px;&quot;&gt;as a field, friend class&lt;/font&gt;" style="text;html=1;align=center;verticalAlign=middle;whiteSpace=wrap;rounded=0;rotation=0;" parent="1" vertex="1">
          <mxGeometry x="-340" y="60" width="90" height="60" as="geometry" />
        </mxCell>
        <mxCell id="3gAnRvBLmUatwOGIA2fg-22" value="&lt;font style=&quot;font-size: 15px;&quot;&gt;Fox&lt;/font&gt;" style="rounded=0;whiteSpace=wrap;html=1;" parent="1" vertex="1">
          <mxGeometry x="-360" y="-70" width="90" height="40" as="geometry" />
        </mxCell>
        <mxCell id="3gAnRvBLmUatwOGIA2fg-23" value="&lt;font style=&quot;font-size: 15px;&quot;&gt;Fredd&lt;/font&gt;" style="rounded=0;whiteSpace=wrap;html=1;" parent="1" vertex="1">
          <mxGeometry x="-210" y="-90" width="90" height="40" as="geometry" />
        </mxCell>
        <mxCell id="3gAnRvBLmUatwOGIA2fg-24" value="&lt;font style=&quot;font-size: 15px;&quot;&gt;Animatronic&lt;/font&gt;" style="rounded=0;whiteSpace=wrap;html=1;" parent="1" vertex="1">
          <mxGeometry x="-490" y="-30" width="90" height="40" as="geometry" />
        </mxCell>
        <mxCell id="3gAnRvBLmUatwOGIA2fg-25" value="" style="endArrow=classic;html=1;rounded=0;entryX=1;entryY=0.5;entryDx=0;entryDy=0;jumpSize=6;strokeWidth=3;exitX=0;exitY=0.5;exitDx=0;exitDy=0;" parent="1" source="FwPt4kaaaoxJ7pNveMdv-2" target="3gAnRvBLmUatwOGIA2fg-23" edge="1">
          <mxGeometry width="50" height="50" relative="1" as="geometry">
            <mxPoint x="-90" y="150" as="sourcePoint" />
            <mxPoint x="-460" y="110" as="targetPoint" />
          </mxGeometry>
        </mxCell>
        <mxCell id="3gAnRvBLmUatwOGIA2fg-26" value="" style="endArrow=classic;html=1;rounded=0;entryX=1;entryY=0.5;entryDx=0;entryDy=0;jumpSize=6;strokeWidth=3;exitX=0;exitY=0.5;exitDx=0;exitDy=0;" parent="1" source="FwPt4kaaaoxJ7pNveMdv-2" target="3gAnRvBLmUatwOGIA2fg-24" edge="1">
          <mxGeometry width="50" height="50" relative="1" as="geometry">
            <mxPoint x="-80" y="160" as="sourcePoint" />
            <mxPoint x="-450" y="120" as="targetPoint" />
          </mxGeometry>
        </mxCell>
        <mxCell id="3gAnRvBLmUatwOGIA2fg-27" value="" style="endArrow=classic;html=1;rounded=0;entryX=1;entryY=0.5;entryDx=0;entryDy=0;jumpSize=6;strokeWidth=3;exitX=0;exitY=0.5;exitDx=0;exitDy=0;" parent="1" source="FwPt4kaaaoxJ7pNveMdv-2" target="3gAnRvBLmUatwOGIA2fg-22" edge="1">
          <mxGeometry width="50" height="50" relative="1" as="geometry">
            <mxPoint x="-70" y="170" as="sourcePoint" />
            <mxPoint x="-440" y="130" as="targetPoint" />
          </mxGeometry>
        </mxCell>
        <mxCell id="3gAnRvBLmUatwOGIA2fg-28" value="&lt;font style=&quot;font-size: 15px;&quot;&gt;as a field, friend class&lt;/font&gt;" style="text;html=1;align=center;verticalAlign=middle;whiteSpace=wrap;rounded=0;rotation=0;" parent="1" vertex="1">
          <mxGeometry x="-220" y="-20" width="90" height="60" as="geometry" />
        </mxCell>
        <mxCell id="3gAnRvBLmUatwOGIA2fg-29" value="&lt;font style=&quot;font-size: 15px;&quot;&gt;as a field, friend class&lt;/font&gt;" style="text;html=1;align=center;verticalAlign=middle;whiteSpace=wrap;rounded=0;rotation=0;" parent="1" vertex="1">
          <mxGeometry x="-413" y="10" width="90" height="60" as="geometry" />
        </mxCell>
        <mxCell id="3gAnRvBLmUatwOGIA2fg-30" value="&lt;font style=&quot;font-size: 15px;&quot;&gt;as a field, friend class&lt;/font&gt;" style="text;html=1;align=center;verticalAlign=middle;whiteSpace=wrap;rounded=0;rotation=0;" parent="1" vertex="1">
          <mxGeometry x="-100" y="-50" width="90" height="60" as="geometry" />
        </mxCell>
        <mxCell id="3gAnRvBLmUatwOGIA2fg-31" value="&lt;font style=&quot;font-size: 15px;&quot;&gt;MiniRogue&lt;/font&gt;" style="rounded=0;whiteSpace=wrap;html=1;" parent="1" vertex="1">
          <mxGeometry x="350" y="350" width="90" height="40" as="geometry" />
        </mxCell>
        <mxCell id="3gAnRvBLmUatwOGIA2fg-32" value="&lt;font style=&quot;font-size: 15px;&quot;&gt;MiniMage&lt;/font&gt;" style="rounded=0;whiteSpace=wrap;html=1;" parent="1" vertex="1">
          <mxGeometry x="580" y="360" width="90" height="40" as="geometry" />
        </mxCell>
        <mxCell id="3gAnRvBLmUatwOGIA2fg-33" value="&lt;font style=&quot;font-size: 15px;&quot;&gt;MiniWarrior&lt;/font&gt;" style="rounded=0;whiteSpace=wrap;html=1;" parent="1" vertex="1">
          <mxGeometry x="460" y="390" width="90" height="40" as="geometry" />
        </mxCell>
        <mxCell id="3gAnRvBLmUatwOGIA2fg-35" value="&lt;font style=&quot;font-size: 15px;&quot;&gt;MiniGoblin&lt;/font&gt;" style="rounded=0;whiteSpace=wrap;html=1;" parent="1" vertex="1">
          <mxGeometry x="730" y="420" width="90" height="40" as="geometry" />
        </mxCell>
        <mxCell id="3gAnRvBLmUatwOGIA2fg-36" value="&lt;font style=&quot;font-size: 15px;&quot;&gt;MiniEnemy&lt;/font&gt;" style="rounded=0;whiteSpace=wrap;html=1;" parent="1" vertex="1">
          <mxGeometry x="700" y="280" width="90" height="40" as="geometry" />
        </mxCell>
        <mxCell id="3gAnRvBLmUatwOGIA2fg-37" value="&lt;font style=&quot;font-size: 15px;&quot;&gt;MiniPlayer&lt;/font&gt;" style="rounded=0;whiteSpace=wrap;html=1;" parent="1" vertex="1">
          <mxGeometry x="500" y="220" width="90" height="40" as="geometry" />
        </mxCell>
        <mxCell id="3gAnRvBLmUatwOGIA2fg-38" value="&lt;font style=&quot;font-size: 15px;&quot;&gt;by start() function&lt;/font&gt;" style="text;html=1;align=center;verticalAlign=middle;whiteSpace=wrap;rounded=0;" parent="1" vertex="1">
          <mxGeometry x="890" y="210" width="90" height="60" as="geometry" />
        </mxCell>
        <mxCell id="3gAnRvBLmUatwOGIA2fg-39" value="" style="endArrow=classic;html=1;rounded=0;entryX=0.5;entryY=0;entryDx=0;entryDy=0;jumpSize=6;strokeWidth=3;" parent="1" target="3gAnRvBLmUatwOGIA2fg-37" edge="1">
          <mxGeometry width="50" height="50" relative="1" as="geometry">
            <mxPoint x="820" y="160" as="sourcePoint" />
            <mxPoint x="855" y="300" as="targetPoint" />
          </mxGeometry>
        </mxCell>
        <mxCell id="3gAnRvBLmUatwOGIA2fg-40" value="" style="endArrow=classic;html=1;rounded=0;entryX=0.5;entryY=0;entryDx=0;entryDy=0;jumpSize=6;strokeWidth=3;exitX=0.5;exitY=1;exitDx=0;exitDy=0;" parent="1" source="-v-FeaUxsi9AabH1ScJe-1" target="3gAnRvBLmUatwOGIA2fg-36" edge="1">
          <mxGeometry width="50" height="50" relative="1" as="geometry">
            <mxPoint x="845" y="180" as="sourcePoint" />
            <mxPoint x="865" y="310" as="targetPoint" />
          </mxGeometry>
        </mxCell>
        <mxCell id="3gAnRvBLmUatwOGIA2fg-42" value="&lt;font style=&quot;font-size: 15px;&quot;&gt;as a field&lt;/font&gt;" style="text;html=1;align=center;verticalAlign=middle;whiteSpace=wrap;rounded=0;rotation=-15;" parent="1" vertex="1">
          <mxGeometry x="570" y="150" width="90" height="60" as="geometry" />
        </mxCell>
        <mxCell id="3gAnRvBLmUatwOGIA2fg-43" value="&lt;font style=&quot;font-size: 15px;&quot;&gt;as a field&lt;/font&gt;" style="text;html=1;align=center;verticalAlign=middle;whiteSpace=wrap;rounded=0;rotation=-30;" parent="1" vertex="1">
          <mxGeometry x="700" y="200" width="90" height="60" as="geometry" />
        </mxCell>
        <mxCell id="3gAnRvBLmUatwOGIA2fg-45" value="" style="endArrow=classic;html=1;rounded=0;entryX=0.5;entryY=0;entryDx=0;entryDy=0;jumpSize=6;strokeWidth=3;exitX=0.5;exitY=1;exitDx=0;exitDy=0;" parent="1" source="3gAnRvBLmUatwOGIA2fg-37" target="3gAnRvBLmUatwOGIA2fg-31" edge="1">
          <mxGeometry width="50" height="50" relative="1" as="geometry">
            <mxPoint x="422" y="330" as="sourcePoint" />
            <mxPoint x="342" y="450" as="targetPoint" />
          </mxGeometry>
        </mxCell>
        <mxCell id="3gAnRvBLmUatwOGIA2fg-46" value="" style="endArrow=classic;html=1;rounded=0;entryX=0.5;entryY=0;entryDx=0;entryDy=0;jumpSize=6;strokeWidth=3;exitX=0.5;exitY=1;exitDx=0;exitDy=0;" parent="1" source="3gAnRvBLmUatwOGIA2fg-37" target="3gAnRvBLmUatwOGIA2fg-33" edge="1">
          <mxGeometry width="50" height="50" relative="1" as="geometry">
            <mxPoint x="422" y="410" as="sourcePoint" />
            <mxPoint x="342" y="530" as="targetPoint" />
          </mxGeometry>
        </mxCell>
        <mxCell id="3gAnRvBLmUatwOGIA2fg-47" value="" style="endArrow=classic;html=1;rounded=0;entryX=0.5;entryY=0;entryDx=0;entryDy=0;jumpSize=6;strokeWidth=3;exitX=0.5;exitY=1;exitDx=0;exitDy=0;" parent="1" source="3gAnRvBLmUatwOGIA2fg-37" target="3gAnRvBLmUatwOGIA2fg-32" edge="1">
          <mxGeometry width="50" height="50" relative="1" as="geometry">
            <mxPoint x="570" y="300" as="sourcePoint" />
            <mxPoint x="490" y="420" as="targetPoint" />
          </mxGeometry>
        </mxCell>
        <mxCell id="3gAnRvBLmUatwOGIA2fg-48" value="" style="endArrow=classic;html=1;rounded=0;entryX=0.5;entryY=0;entryDx=0;entryDy=0;jumpSize=6;strokeWidth=3;exitX=0.5;exitY=1;exitDx=0;exitDy=0;" parent="1" source="3gAnRvBLmUatwOGIA2fg-36" target="3gAnRvBLmUatwOGIA2fg-35" edge="1">
          <mxGeometry width="50" height="50" relative="1" as="geometry">
            <mxPoint x="865" y="200" as="sourcePoint" />
            <mxPoint x="785" y="320" as="targetPoint" />
          </mxGeometry>
        </mxCell>
        <mxCell id="3gAnRvBLmUatwOGIA2fg-49" value="&lt;font style=&quot;font-size: 15px;&quot;&gt;inheritance&lt;/font&gt;" style="text;html=1;align=center;verticalAlign=middle;whiteSpace=wrap;rounded=0;rotation=-59;" parent="1" vertex="1">
          <mxGeometry x="450" y="320" width="90" height="60" as="geometry" />
        </mxCell>
        <mxCell id="3gAnRvBLmUatwOGIA2fg-50" value="&lt;font style=&quot;font-size: 15px;&quot;&gt;inheritance&lt;/font&gt;" style="text;html=1;align=center;verticalAlign=middle;whiteSpace=wrap;rounded=0;" parent="1" vertex="1">
          <mxGeometry x="400" y="250" width="90" height="60" as="geometry" />
        </mxCell>
        <mxCell id="3gAnRvBLmUatwOGIA2fg-51" value="&lt;font style=&quot;font-size: 15px;&quot;&gt;inheritance&lt;/font&gt;" style="text;html=1;align=center;verticalAlign=middle;whiteSpace=wrap;rounded=0;" parent="1" vertex="1">
          <mxGeometry x="580" y="270" width="90" height="60" as="geometry" />
        </mxCell>
        <mxCell id="3gAnRvBLmUatwOGIA2fg-52" value="&lt;font style=&quot;font-size: 15px;&quot;&gt;inheritance&lt;/font&gt;" style="text;html=1;align=center;verticalAlign=middle;whiteSpace=wrap;rounded=0;rotation=45;" parent="1" vertex="1">
          <mxGeometry x="760" y="340" width="90" height="60" as="geometry" />
        </mxCell>
        <mxCell id="3gAnRvBLmUatwOGIA2fg-53" value="&lt;font style=&quot;font-size: 15px;&quot;&gt;MiniAbility&lt;/font&gt;" style="rounded=0;whiteSpace=wrap;html=1;" parent="1" vertex="1">
          <mxGeometry x="1050" y="280" width="130" height="40" as="geometry" />
        </mxCell>
        <mxCell id="3gAnRvBLmUatwOGIA2fg-54" value="&lt;font style=&quot;font-size: 15px;&quot;&gt;MiniEffect&lt;/font&gt;" style="rounded=0;whiteSpace=wrap;html=1;" parent="1" vertex="1">
          <mxGeometry x="1140" y="220" width="130" height="40" as="geometry" />
        </mxCell>
        <mxCell id="3gAnRvBLmUatwOGIA2fg-55" value="" style="endArrow=classic;html=1;rounded=0;entryX=0.5;entryY=0;entryDx=0;entryDy=0;jumpSize=6;strokeWidth=3;exitX=0.5;exitY=1;exitDx=0;exitDy=0;" parent="1" source="-v-FeaUxsi9AabH1ScJe-1" target="3gAnRvBLmUatwOGIA2fg-54" edge="1">
          <mxGeometry width="50" height="50" relative="1" as="geometry">
            <mxPoint x="835" y="170" as="sourcePoint" />
            <mxPoint x="1125" y="290" as="targetPoint" />
          </mxGeometry>
        </mxCell>
        <mxCell id="vSy6eqBBnpPBXpFzevR--1" value="" style="endArrow=classic;html=1;rounded=0;entryX=0;entryY=0.5;entryDx=0;entryDy=0;jumpSize=6;strokeWidth=3;exitX=1;exitY=0.5;exitDx=0;exitDy=0;" edge="1" parent="1" source="3gAnRvBLmUatwOGIA2fg-37" target="3gAnRvBLmUatwOGIA2fg-36">
          <mxGeometry width="50" height="50" relative="1" as="geometry">
            <mxPoint x="555" y="270" as="sourcePoint" />
            <mxPoint x="635" y="370" as="targetPoint" />
          </mxGeometry>
        </mxCell>
        <mxCell id="vSy6eqBBnpPBXpFzevR--2" value="&lt;font style=&quot;font-size: 15px;&quot;&gt;inheritance&lt;/font&gt;" style="text;html=1;align=center;verticalAlign=middle;whiteSpace=wrap;rounded=0;rotation=20;" vertex="1" parent="1">
          <mxGeometry x="610" y="230" width="90" height="60" as="geometry" />
        </mxCell>
      </root>
    </mxGraphModel>
  </diagram>
</mxfile>
